<?xml version="1.0" encoding="utf-8"?>
<!-- Generator: Adobe Illustrator 22.1.0, SVG Export Plug-In . SVG Version: 6.00 Build 0)  -->
<svg version="1.1" id="Layer_1" xmlns="http://www.w3.org/2000/svg" xmlns:xlink="http://www.w3.org/1999/xlink" x="0px" y="0px"
	 viewBox="0 0 166.2 43.8" style="enable-background:new 0 0 166.2 43.8;" xml:space="preserve">
<style type="text/css">
	.st0{fill:#F26922;}
</style>
<g>
	<path d="M10.9,35.3H24v8H0.9V0.8h10V35.3z"/>
	<path d="M61.1,9.5v33.8h-10v-4.6c-1,1.5-2.4,2.7-4.1,3.6c-1.7,0.9-3.7,1.4-5.8,1.4c-2.5,0-4.7-0.6-6.6-1.7c-1.9-1.2-3.4-2.8-4.4-5
		c-1.1-2.2-1.6-4.7-1.6-7.7V9.5h9.9v18.3c0,2.3,0.6,4,1.7,5.3c1.1,1.3,2.7,1.9,4.6,1.9c1.9,0,3.5-0.6,4.6-1.9c1.1-1.3,1.7-3,1.7-5.3
		V9.5H61.1z"/>
	<path d="M73.9,42.3c-2.2-1-4-2.4-5.3-4.1c-1.3-1.8-2-3.7-2.2-5.9h9.9c0.1,1.2,0.6,2.1,1.6,2.8c0.9,0.7,2.1,1.1,3.4,1.1
		c1.2,0,2.2-0.3,2.9-0.8c0.7-0.5,1-1.2,1-2c0-1-0.5-1.7-1.5-2.1c-1-0.5-2.6-1-4.7-1.5c-2.3-0.6-4.3-1.2-5.8-1.8
		c-1.6-0.6-2.9-1.6-4-3c-1.1-1.4-1.7-3.2-1.7-5.5c0-1.9,0.5-3.7,1.5-5.3c1-1.6,2.6-2.9,4.6-3.8C75.7,9.5,78,9,80.8,9
		c4.1,0,7.3,1.1,9.7,3.1c2.4,2.1,3.7,4.9,4.1,8.4h-9.2c-0.2-1.2-0.7-2.1-1.5-2.8s-1.9-1-3.3-1c-1.2,0-2.1,0.2-2.7,0.7
		c-0.6,0.5-0.9,1.1-0.9,1.9c0,1,0.5,1.7,1.5,2.2c1,0.5,2.5,1,4.6,1.5c2.4,0.6,4.4,1.3,5.9,1.9c1.5,0.6,2.9,1.6,4,3
		c1.1,1.4,1.7,3.3,1.8,5.6c0,2-0.5,3.7-1.6,5.3c-1.1,1.6-2.6,2.8-4.6,3.7c-2,0.9-4.3,1.3-7,1.3C78.7,43.8,76.1,43.3,73.9,42.3z"/>
	<path d="M106.5,42.3c-2.2-1-4-2.4-5.3-4.1c-1.3-1.8-2-3.7-2.2-5.9h9.9c0.1,1.2,0.6,2.1,1.6,2.8c0.9,0.7,2.1,1.1,3.5,1.1
		c1.2,0,2.2-0.3,2.9-0.8c0.7-0.5,1-1.2,1-2c0-1-0.5-1.7-1.5-2.1c-1-0.5-2.6-1-4.7-1.5c-2.3-0.6-4.3-1.2-5.8-1.8
		c-1.6-0.6-2.9-1.6-4-3c-1.1-1.4-1.7-3.2-1.7-5.5c0-1.9,0.5-3.7,1.5-5.3c1-1.6,2.6-2.9,4.6-3.8c2-0.9,4.4-1.4,7.2-1.4
		c4.1,0,7.3,1.1,9.7,3.1c2.4,2.1,3.7,4.9,4.1,8.4h-9.2c-0.2-1.2-0.7-2.1-1.5-2.8c-0.8-0.7-1.9-1-3.3-1c-1.2,0-2.1,0.2-2.7,0.7
		c-0.6,0.5-0.9,1.1-0.9,1.9c0,1,0.5,1.7,1.5,2.2c1,0.5,2.5,1,4.6,1.5c2.4,0.6,4.4,1.3,5.9,1.9c1.5,0.6,2.9,1.6,4,3
		c1.1,1.4,1.7,3.3,1.8,5.6c0,2-0.5,3.7-1.6,5.3c-1.1,1.6-2.6,2.8-4.6,3.7c-2,0.9-4.3,1.3-7,1.3C111.3,43.8,108.8,43.3,106.5,42.3z"
		/>
	<path d="M139.7,41.7c-2.6-1.4-4.6-3.4-6-6.1c-1.5-2.6-2.2-5.7-2.2-9.2c0-3.5,0.7-6.5,2.2-9.2c1.5-2.6,3.5-4.7,6.1-6.1
		c2.6-1.4,5.5-2.1,8.7-2.1c3.2,0,6.1,0.7,8.7,2.1c2.6,1.4,4.6,3.4,6.1,6.1c1.5,2.6,2.2,5.7,2.2,9.2c0,3.5-0.8,6.5-2.2,9.2
		c-1.5,2.6-3.5,4.7-6.1,6.1c-2.6,1.4-5.5,2.1-8.7,2.1S142.3,43.1,139.7,41.7z M153.2,32.6c1.3-1.5,2-3.5,2-6.2c0-2.7-0.7-4.8-2-6.2
		s-2.9-2.2-4.8-2.2c-1.9,0-3.6,0.7-4.9,2.2c-1.3,1.4-1.9,3.5-1.9,6.3c0,2.7,0.6,4.8,1.9,6.2c1.3,1.5,2.9,2.2,4.8,2.2
		S151.9,34.1,153.2,32.6z"/>
</g>
<rect x="131.5" y="0.8" class="st0" width="34" height="6"/>
</svg>
