<svg id="Layer_1" data-name="Layer 1" xmlns="http://www.w3.org/2000/svg" viewBox="0 0 373 55"><title>text</title><path d="M7.12,50.38Q1.43,46.17,1,38.32H16.05a5.61,5.61,0,0,0,1.58,3.89,5.12,5.12,0,0,0,3.53,1.22,5.06,5.06,0,0,0,3.2-1,3.22,3.22,0,0,0,1.26-2.7,3.82,3.82,0,0,0-2.08-3.46,37.75,37.75,0,0,0-6.77-2.73,60.75,60.75,0,0,1-8-3.21,15.37,15.37,0,0,1-5.33-4.53A12.59,12.59,0,0,1,1.14,18,14.25,14.25,0,0,1,3.59,9.63a15.12,15.12,0,0,1,6.77-5.29,25.24,25.24,0,0,1,9.79-1.8Q29,2.54,34.3,6.68T40,18.3H24.62a4.52,4.52,0,0,0-1.41-3.45,5,5,0,0,0-3.42-1.15,3.67,3.67,0,0,0-2.59.93,3.47,3.47,0,0,0-1,2.67,3.27,3.27,0,0,0,1.12,2.48,10,10,0,0,0,2.77,1.8c1.1.5,2.74,1.14,4.9,1.91a60,60,0,0,1,8,3.27,16.28,16.28,0,0,1,5.4,4.54,11.66,11.66,0,0,1,2.27,7.38,15,15,0,0,1-2.27,8.14,15.5,15.5,0,0,1-6.55,5.68,22.77,22.77,0,0,1-10.12,2.09Q12.81,54.59,7.12,50.38Z"/><path d="M88.48,13.7V54.09H74.3V48.33a13.39,13.39,0,0,1-5,4.43,15.32,15.32,0,0,1-7.27,1.69q-7.06,0-11.13-4.65T46.86,37.17V13.7h14V35.37a7.7,7.7,0,0,0,1.84,5.43,7,7,0,0,0,9.76,0,7.82,7.82,0,0,0,1.8-5.43V13.7Z"/><path d="M115.33,14.81a14.92,14.92,0,0,1,7.13-1.62,15.86,15.86,0,0,1,8.75,2.52,17.2,17.2,0,0,1,6.19,7.2,24.87,24.87,0,0,1,2.27,11,25.13,25.13,0,0,1-2.27,11,17.17,17.17,0,0,1-6.19,7.23,15.86,15.86,0,0,1-8.75,2.52A14.92,14.92,0,0,1,115.33,53a11.66,11.66,0,0,1-4.68-4.5v5.62H96.54V.81h14.11v18.5A11.66,11.66,0,0,1,115.33,14.81Zm7.89,12.89A7,7,0,0,0,118,25.5a6.91,6.91,0,0,0-5.22,2.24,8.47,8.47,0,0,0-2.13,6.12,8.6,8.6,0,0,0,2.13,6.19,7.18,7.18,0,0,0,10.44,0,8.65,8.65,0,0,0,2.12-6.15A8.52,8.52,0,0,0,123.22,27.7Z"/><path d="M153,52.76a16.72,16.72,0,0,1-6.76-5,13.14,13.14,0,0,1-2.78-7.24h13.68a4.37,4.37,0,0,0,1.8,3,6.29,6.29,0,0,0,3.75,1.08,4.6,4.6,0,0,0,2.73-.72,2.17,2.17,0,0,0,1-1.87,2.36,2.36,0,0,0-1.65-2.23,33.57,33.57,0,0,0-5.48-1.58,47.73,47.73,0,0,1-7.2-2,12.2,12.2,0,0,1-5-3.53,9.73,9.73,0,0,1-2.12-6.62,11.48,11.48,0,0,1,1.94-6.52,13.32,13.32,0,0,1,5.72-4.64,21.84,21.84,0,0,1,9.11-1.73q7.92,0,12.46,3.89a15.21,15.21,0,0,1,5.25,10.22H166.67a4.69,4.69,0,0,0-1.69-3,5.62,5.62,0,0,0-3.57-1.05,4.46,4.46,0,0,0-2.62.65,2.09,2.09,0,0,0-.9,1.8,2.4,2.4,0,0,0,1.65,2.2,28.27,28.27,0,0,0,5.33,1.54,47.39,47.39,0,0,1,7.31,2.09,13,13,0,0,1,5.11,3.71,10.32,10.32,0,0,1,2.2,7,10.45,10.45,0,0,1-2.06,6.33A13.57,13.57,0,0,1,171.6,53a22.43,22.43,0,0,1-8.89,1.62A24.65,24.65,0,0,1,153,52.76Z"/><path d="M186.69,22.91a17.84,17.84,0,0,1,7.23-7.2,21.93,21.93,0,0,1,10.62-2.52,20.09,20.09,0,0,1,13,4.21,19.4,19.4,0,0,1,6.77,11.78h-15q-1.29-4-5-4A4.89,4.89,0,0,0,200,27.41c-1,1.47-1.55,3.61-1.55,6.45A11.36,11.36,0,0,0,200,40.34a4.88,4.88,0,0,0,4.21,2.23q3.83,0,5-4h15a19.48,19.48,0,0,1-6.77,11.73,19.9,19.9,0,0,1-13,4.25,21.93,21.93,0,0,1-10.62-2.52,17.84,17.84,0,0,1-7.23-7.2,22.35,22.35,0,0,1-2.6-11A22.22,22.22,0,0,1,186.69,22.91Z"/><path d="M250,15.35a14,14,0,0,1,7.28-2v15h-4c-3.08,0-5.36.61-6.84,1.8s-2.24,3.29-2.24,6.27V54.09H230.1V13.7h14.11v7.12A18.61,18.61,0,0,1,250,15.35Z"/><path d="M263.4,12.9a6.66,6.66,0,0,1-2.27-5.15A6.84,6.84,0,0,1,263.4,2.5a8.49,8.49,0,0,1,6-2.09,8.38,8.38,0,0,1,5.94,2.09,6.84,6.84,0,0,1,2.27,5.25,6.66,6.66,0,0,1-2.27,5.15,8.5,8.5,0,0,1-5.94,2A8.61,8.61,0,0,1,263.4,12.9Zm13,2.6V54.09H262.29V15.5Z"/><path d="M303.25,14.81a14.89,14.89,0,0,1,7.13-1.62,15.86,15.86,0,0,1,8.75,2.52,17.27,17.27,0,0,1,6.19,7.2,24.87,24.87,0,0,1,2.27,11,25.13,25.13,0,0,1-2.27,11,17.23,17.23,0,0,1-6.19,7.23,15.86,15.86,0,0,1-8.75,2.52A14.89,14.89,0,0,1,303.25,53a11.66,11.66,0,0,1-4.68-4.5v5.62H284.46V.81h14.11v18.5A11.66,11.66,0,0,1,303.25,14.81Zm7.89,12.89a7,7,0,0,0-5.22-2.2,6.91,6.91,0,0,0-5.22,2.24,8.47,8.47,0,0,0-2.13,6.12,8.6,8.6,0,0,0,2.13,6.19,7.18,7.18,0,0,0,10.44,0,8.65,8.65,0,0,0,2.12-6.15A8.52,8.52,0,0,0,311.14,27.7Z"/><path d="M371.8,36.74H345.08a7.47,7.47,0,0,0,1.84,4.93,5.61,5.61,0,0,0,4.14,1.62,5.2,5.2,0,0,0,5-3.17h15a17.68,17.68,0,0,1-3.64,7.45,18.74,18.74,0,0,1-6.8,5.15,21.58,21.58,0,0,1-9.07,1.87A21.88,21.88,0,0,1,341,52.07a18.14,18.14,0,0,1-7.28-7.2,22.14,22.14,0,0,1-2.62-11,22.12,22.12,0,0,1,2.59-11,18,18,0,0,1,7.23-7.17,24,24,0,0,1,21.28-.07,17.63,17.63,0,0,1,7.2,7A21.45,21.45,0,0,1,372,33.42,26.43,26.43,0,0,1,371.8,36.74ZM357.61,29.9a5,5,0,0,0-1.73-4.07,6.38,6.38,0,0,0-4.32-1.48,6.31,6.31,0,0,0-4.24,1.41,6.74,6.74,0,0,0-2.16,4.14Z"/></svg>