<svg id="Layer_1" data-name="Layer 1" xmlns="http://www.w3.org/2000/svg" viewBox="0 0 271 55"><title>text</title><path d="M35.42,1.87V13.1H15.11V22h15V32.76h-15V52.63H1V1.87Z"/><path d="M49.35,50.61a18.58,18.58,0,0,1-7.53-7.2,21.46,21.46,0,0,1-2.73-11,21.07,21.07,0,0,1,2.77-10.95,18.84,18.84,0,0,1,7.56-7.2,22.89,22.89,0,0,1,10.83-2.52,22.9,22.9,0,0,1,10.84,2.52,18.84,18.84,0,0,1,7.56,7.2,21.07,21.07,0,0,1,2.77,11,21.28,21.28,0,0,1-2.77,11,18.7,18.7,0,0,1-7.6,7.23,23.11,23.11,0,0,1-10.87,2.52A22.89,22.89,0,0,1,49.35,50.61ZM65.11,38.7a9.12,9.12,0,0,0,2-6.3q0-4.11-2-6.27A6.34,6.34,0,0,0,60.25,24a6.23,6.23,0,0,0-4.82,2.16c-1.3,1.44-1.94,3.53-1.94,6.27s.62,4.89,1.87,6.33a6.08,6.08,0,0,0,4.82,2.16A6.37,6.37,0,0,0,65.11,38.7Z"/><path d="M107.05,13.89a14,14,0,0,1,7.28-2v15h-4q-4.62,0-6.84,1.8T101.29,35V52.63H87.18V12.24h14.11v7.12A18.61,18.61,0,0,1,107.05,13.89Z"/><path d="M179.27,1.87,161.41,36.5V52.63H147.23V36.5L129.37,1.87H145.5l8.93,19.58,8.93-19.58Z"/><path d="M191.54,50.61a18.55,18.55,0,0,1-7.52-7.2,21.46,21.46,0,0,1-2.74-11,21.07,21.07,0,0,1,2.78-10.95,18.71,18.71,0,0,1,7.56-7.2,24.55,24.55,0,0,1,21.67,0,18.84,18.84,0,0,1,7.56,7.2,21.07,21.07,0,0,1,2.77,11,21.28,21.28,0,0,1-2.77,11,18.7,18.7,0,0,1-7.6,7.23,24.64,24.64,0,0,1-21.71,0ZM207.31,38.7a9.12,9.12,0,0,0,2-6.3q0-4.11-2-6.27A6.34,6.34,0,0,0,202.45,24a6.21,6.21,0,0,0-4.82,2.16q-1.95,2.16-1.95,6.27t1.88,6.33a6.07,6.07,0,0,0,4.82,2.16A6.37,6.37,0,0,0,207.31,38.7Z"/><path d="M270.71,12.24V52.63H256.52V46.87a13.36,13.36,0,0,1-5,4.43A15.33,15.33,0,0,1,244.28,53q-7,0-11.12-4.65t-4.07-12.63V12.24h14V33.91A7.65,7.65,0,0,0,245,39.34a7,7,0,0,0,9.75,0,7.77,7.77,0,0,0,1.8-5.43V12.24Z"/></svg>