<svg id="Layer_1" data-name="Layer 1" xmlns="http://www.w3.org/2000/svg" viewBox="0 0 227 55"><title>text</title><path d="M36.57,45.61h-18l-2.74,8.28H1L19.5,3.13H35.78L54.21,53.89H39.3ZM33,34.81,27.57,18.39l-5.4,16.42Z"/><path d="M77.61,14.61A14.86,14.86,0,0,1,84.74,13a15.82,15.82,0,0,1,8.74,2.52,17.29,17.29,0,0,1,6.2,7.2,24.87,24.87,0,0,1,2.26,10.95,25.13,25.13,0,0,1-2.26,11,17.26,17.26,0,0,1-6.2,7.23,15.82,15.82,0,0,1-8.74,2.52,14.86,14.86,0,0,1-7.13-1.62,11.53,11.53,0,0,1-4.68-4.5v5.62H58.82V.61H72.93v18.5A11.53,11.53,0,0,1,77.61,14.61ZM85.49,27.5a7,7,0,0,0-5.22-2.2,6.94,6.94,0,0,0-5.22,2.24,8.47,8.47,0,0,0-2.12,6.12,8.6,8.6,0,0,0,2.12,6.19,7.18,7.18,0,0,0,10.44,0,8.62,8.62,0,0,0,2.13-6.15A8.48,8.48,0,0,0,85.49,27.5Z"/><path d="M115.73,51.87a18.55,18.55,0,0,1-7.52-7.2,21.37,21.37,0,0,1-2.74-11,21.07,21.07,0,0,1,2.77-10.95,18.84,18.84,0,0,1,7.56-7.2,24.55,24.55,0,0,1,21.67,0,18.71,18.71,0,0,1,7.56,7.2,21.07,21.07,0,0,1,2.78,10.95,21.28,21.28,0,0,1-2.78,11,18.67,18.67,0,0,1-7.59,7.23,23.13,23.13,0,0,1-10.87,2.52A22.9,22.9,0,0,1,115.73,51.87ZM131.5,40a9.12,9.12,0,0,0,2-6.3q0-4.11-2-6.27a6.34,6.34,0,0,0-4.86-2.16,6.25,6.25,0,0,0-4.83,2.16q-1.94,2.16-1.94,6.27T121.74,40a6.1,6.1,0,0,0,4.83,2.16A6.38,6.38,0,0,0,131.5,40Z"/><path d="M194.89,13.5V53.89H180.71V48.13a13.39,13.39,0,0,1-5,4.43,15.27,15.27,0,0,1-7.27,1.69q-7,0-11.12-4.65T153.28,37V13.5h14V35.17a7.69,7.69,0,0,0,1.83,5.43,7,7,0,0,0,9.76,0,7.77,7.77,0,0,0,1.8-5.43V13.5Z"/><path d="M226.79,41.86v12h-6.12q-15.48,0-15.48-15.34V25.23h-5V13.5h5V3.7h14.18v9.8h7.35V25.23h-7.35V38.77a3.18,3.18,0,0,0,.76,2.37,3.63,3.63,0,0,0,2.55.72Z"/></svg>