<svg id="Layer_1" data-name="Layer 1" xmlns="http://www.w3.org/2000/svg" viewBox="0 0 341 55"><title>text</title><path d="M35.28,3.6V14.84H15v8.92H30V34.49H15V54.36H.86V3.6Z"/><path d="M41.22,23.19A17.2,17.2,0,0,1,47.41,16a15.86,15.86,0,0,1,8.75-2.52,14.84,14.84,0,0,1,7.2,1.65A12.14,12.14,0,0,1,68,19.59V14H82.15V54.36H68V48.75a12,12,0,0,1-4.72,4.46,14.76,14.76,0,0,1-7.16,1.66,15.86,15.86,0,0,1-8.75-2.52,17.13,17.13,0,0,1-6.19-7.24,25.07,25.07,0,0,1-2.27-11A24.86,24.86,0,0,1,41.22,23.19ZM65.91,28a7.29,7.29,0,0,0-10.47,0,8.57,8.57,0,0,0-2.09,6.15,8.76,8.76,0,0,0,2.09,6.16,6.84,6.84,0,0,0,5.25,2.27,6.91,6.91,0,0,0,5.22-2.24A8.59,8.59,0,0,0,68,34.13,8.51,8.51,0,0,0,65.91,28Z"/><path d="M109,15.09a14.85,14.85,0,0,1,7.12-1.62A15.86,15.86,0,0,1,124.88,16a17.2,17.2,0,0,1,6.19,7.2,24.72,24.72,0,0,1,2.27,10.94,24.93,24.93,0,0,1-2.27,11,17.13,17.13,0,0,1-6.19,7.24,15.86,15.86,0,0,1-8.75,2.52A14.85,14.85,0,0,1,109,53.25a11.53,11.53,0,0,1-4.68-4.5v5.61H90.21V1.08h14.12V19.59A11.53,11.53,0,0,1,109,15.09ZM116.89,28a7.26,7.26,0,0,0-10.44,0,8.5,8.5,0,0,0-2.12,6.12,8.58,8.58,0,0,0,2.12,6.19,7.17,7.17,0,0,0,10.44,0A8.68,8.68,0,0,0,119,34.13,8.49,8.49,0,0,0,116.89,28Z"/><path d="M180.5,14V54.36H166.32V48.6a13.3,13.3,0,0,1-5,4.43,15.18,15.18,0,0,1-7.27,1.69q-7.07,0-11.13-4.64t-4.06-12.64V14h14V35.64a7.7,7.7,0,0,0,1.83,5.44,7,7,0,0,0,9.76,0,7.78,7.78,0,0,0,1.8-5.44V14Z"/><path d="M202.68,1.08V54.36H188.56V1.08Z"/><path d="M218.7,52.35a18.58,18.58,0,0,1-7.53-7.2,21.47,21.47,0,0,1-2.73-11,21.05,21.05,0,0,1,2.77-10.94,18.84,18.84,0,0,1,7.56-7.2,24.55,24.55,0,0,1,21.67,0,18.84,18.84,0,0,1,7.56,7.2,21.05,21.05,0,0,1,2.77,10.94,21.23,21.23,0,0,1-2.77,11,18.65,18.65,0,0,1-7.6,7.24,24.62,24.62,0,0,1-21.7,0Zm15.76-11.92a9.08,9.08,0,0,0,2-6.3q0-4.1-2-6.26a6.34,6.34,0,0,0-4.86-2.16,6.23,6.23,0,0,0-4.82,2.16c-1.3,1.44-1.94,3.53-1.94,6.26s.62,4.9,1.87,6.34a6.08,6.08,0,0,0,4.82,2.16A6.35,6.35,0,0,0,234.46,40.43Z"/><path d="M297.86,14V54.36H283.68V48.6a13.3,13.3,0,0,1-5,4.43,15.21,15.21,0,0,1-7.27,1.69q-7.06,0-11.13-4.64t-4.07-12.64V14h14V35.64a7.7,7.7,0,0,0,1.84,5.44,7,7,0,0,0,9.76,0,7.83,7.83,0,0,0,1.8-5.44V14Z"/><path d="M313.37,53a16.54,16.54,0,0,1-6.76-5,13.11,13.11,0,0,1-2.78-7.23h13.68a4.39,4.39,0,0,0,1.8,3,6.29,6.29,0,0,0,3.75,1.08,4.6,4.6,0,0,0,2.73-.72,2.18,2.18,0,0,0,1-1.87A2.36,2.36,0,0,0,325.15,40a34.4,34.4,0,0,0-5.48-1.59,46.67,46.67,0,0,1-7.2-1.94,12.29,12.29,0,0,1-5-3.53,9.73,9.73,0,0,1-2.12-6.62,11.46,11.46,0,0,1,1.94-6.52A13.32,13.32,0,0,1,313,15.2a21.68,21.68,0,0,1,9.11-1.73q7.92,0,12.46,3.89a15.21,15.21,0,0,1,5.25,10.22H327.09a4.72,4.72,0,0,0-1.69-3,5.68,5.68,0,0,0-3.57-1,4.39,4.39,0,0,0-2.62.65,2.09,2.09,0,0,0-.9,1.8A2.37,2.37,0,0,0,320,28.19a28.12,28.12,0,0,0,5.33,1.55,46.29,46.29,0,0,1,7.31,2.09,12.94,12.94,0,0,1,5.11,3.71,10.31,10.31,0,0,1,2.2,6.94,10.46,10.46,0,0,1-2.06,6.34A13.65,13.65,0,0,1,332,53.25a22.43,22.43,0,0,1-8.89,1.62A24.48,24.48,0,0,1,313.37,53Z"/></svg>